# xmcd CD database file
#
# Track frame offsets:
#	150
#	80590
#	106295
#	164265
#	211455
#	290555
#
# Disc length: 4261 seconds
#
# Revision: 1
# Processed by: cddbd v1.5.2PL0 Copyright (c) Steve Scherf et al.
# Submitted via: CDex 1.70beta2
#
DISCID=5110a306
DTITLE=Chet Baker - Conservatorio Cherubini CD1
DYEAR=1956
DGENRE=Jazz
TTITLE0=Chekeetah
TTITLE1=You don't know what love is
TTITLE2=Stella by starlight
TTITLE3=Exitus
TTITLE4=Ray's idea
TTITLE5=This is always
EXTD=YEAR: 1956
EXTT0=
EXTT1=
EXTT2=
EXTT3=
EXTT4=
EXTT5=
PLAYORDER=
